<?xml version="1.0" encoding="UTF-8"?>
<svg width="120" height="40" viewBox="0 0 120 40" fill="none" xmlns="http://www.w3.org/2000/svg">
  <path d="M20 8C13.3726 8 8 13.3726 8 20C8 26.6274 13.3726 32 20 32C26.6274 32 32 26.6274 32 20C32 13.3726 26.6274 8 20 8Z" fill="url(#paint0_linear)"/>
  <path d="M20 12C15.5817 12 12 15.5817 12 20C12 24.4183 15.5817 28 20 28C24.4183 28 28 24.4183 28 20C28 15.5817 24.4183 12 20 12Z" fill="white"/>
  <path d="M20 16C17.7909 16 16 17.7909 16 20C16 22.2091 17.7909 24 20 24C22.2091 24 24 22.2091 24 20C24 17.7909 22.2091 16 20 16Z" fill="url(#paint1_linear)"/>
  <path d="M45.44 28V12.8H52.16C53.3333 12.8 54.32 13.0267 55.12 13.48C55.92 13.9333 56.5333 14.5467 56.96 15.32C57.3867 16.0933 57.6 16.9733 57.6 17.96C57.6 18.9467 57.3867 19.8267 56.96 20.6C56.5333 21.3733 55.92 21.9867 55.12 22.44C54.32 22.8933 53.3333 23.12 52.16 23.12H48.24V28H45.44ZM48.24 20.72H51.96C52.7333 20.72 53.3333 20.52 53.76 20.12C54.1867 19.7067 54.4 18.9733 54.4 17.96C54.4 16.9467 54.1867 16.2267 53.76 15.8C53.3333 15.3733 52.7333 15.16 51.96 15.16H48.24V20.72Z" fill="#333333"/>
  <path d="M64.0213 28.24C62.9946 28.24 62.0613 28.0267 61.2213 27.6C60.3813 27.16 59.7146 26.5467 59.2213 25.76C58.728 24.96 58.4813 24.04 58.4813 23C58.4813 21.96 58.728 21.0467 59.2213 20.26C59.7146 19.46 60.3813 18.8467 61.2213 18.42C62.0613 17.9933 62.9946 17.78 64.0213 17.78C65.048 17.78 65.9813 17.9933 66.8213 18.42C67.6613 18.8467 68.328 19.46 68.8213 20.26C69.3146 21.0467 69.5613 21.96 69.5613 23C69.5613 24.04 69.3146 24.96 68.8213 25.76C68.328 26.5467 67.6613 27.16 66.8213 27.6C65.9813 28.0267 65.048 28.24 64.0213 28.24ZM64.0213 25.9C64.7946 25.9 65.428 25.6467 65.9213 25.14C66.4146 24.6333 66.6613 23.92 66.6613 23C66.6613 22.08 66.4146 21.3667 65.9213 20.86C65.428 20.3533 64.7946 20.1 64.0213 20.1C63.248 20.1 62.6146 20.3533 62.1213 20.86C61.628 21.3667 61.3813 22.08 61.3813 23C61.3813 23.92 61.628 24.6333 62.1213 25.14C62.6146 25.6467 63.248 25.9 64.0213 25.9Z" fill="#333333"/>
  <path d="M76.9584 28.24C75.9317 28.24 74.9984 28.0267 74.1584 27.6C73.3184 27.16 72.6517 26.5467 72.1584 25.76C71.6651 24.96 71.4184 24.04 71.4184 23C71.4184 21.96 71.6651 21.0467 72.1584 20.26C72.6517 19.46 73.3184 18.8467 74.1584 18.42C74.9984 17.9933 75.9317 17.78 76.9584 17.78C77.9851 17.78 78.9184 17.9933 79.7584 18.42C80.5984 18.8467 81.2651 19.46 81.7584 20.26C82.2517 21.0467 82.4984 21.96 82.4984 23C82.4984 24.04 82.2517 24.96 81.7584 25.76C81.2651 26.5467 80.5984 27.16 79.7584 27.6C78.9184 28.0267 77.9851 28.24 76.9584 28.24ZM76.9584 25.9C77.7317 25.9 78.3651 25.6467 78.8584 25.14C79.3517 24.6333 79.5984 23.92 79.5984 23C79.5984 22.08 79.3517 21.3667 78.8584 20.86C78.3651 20.3533 77.7317 20.1 76.9584 20.1C76.1851 20.1 75.5517 20.3533 75.0584 20.86C74.5651 21.3667 74.3184 22.08 74.3184 23C74.3184 23.92 74.5651 24.6333 75.0584 25.14C75.5517 25.6467 76.1851 25.9 76.9584 25.9Z" fill="#333333"/>
  <path d="M84.7555 28V18.02H87.5155V19.76C87.8089 19.1467 88.2355 18.6733 88.7955 18.34C89.3689 18.0067 90.0355 17.84 90.7955 17.84C91.9689 17.84 92.8889 18.1933 93.5555 18.9C94.2222 19.5933 94.5555 20.6 94.5555 21.92V28H91.7955V22.38C91.7955 21.6333 91.6222 21.0733 91.2755 20.7C90.9422 20.3133 90.4622 20.12 89.8355 20.12C89.1955 20.12 88.6889 20.3267 88.3155 20.74C87.9422 21.1533 87.7555 21.7533 87.7555 22.54V28H84.7555Z" fill="#333333"/>
  <defs>
    <linearGradient id="paint0_linear" x1="8" y1="8" x2="32" y2="32" gradientUnits="userSpaceOnUse">
      <stop stop-color="#4361EE"/>
      <stop offset="1" stop-color="#3A0CA3"/>
    </linearGradient>
    <linearGradient id="paint1_linear" x1="16" y1="16" x2="24" y2="24" gradientUnits="userSpaceOnUse">
      <stop stop-color="#4361EE"/>
      <stop offset="1" stop-color="#3A0CA3"/>
    </linearGradient>
  </defs>
</svg>
